<svg width="256" height="256" viewBox="0 0 256 256" fill="none" xmlns="http://www.w3.org/2000/svg">
<rect x="128" y="7" width="171.12" height="171.12" rx="16" transform="rotate(45 128 7)" fill="white"/>
<rect x="127.681" y="22.3624" width="69.8194" height="69.8194" rx="10" transform="rotate(45 127.681 22.3624)" fill="#007BC1"/>
<rect x="183.63" y="78.3115" width="69.8194" height="69.8194" rx="10" transform="rotate(45 183.63 78.3115)" fill="#4DA3D4"/>
<rect x="71.7322" y="78.3115" width="69.8194" height="69.8194" rx="10" transform="rotate(45 71.7322 78.3115)" fill="#4DA3D4"/>
<rect x="127.681" y="134.26" width="69.8194" height="69.8194" rx="10" transform="rotate(45 127.681 134.26)" fill="#4DA3D4"/>
<path fill-rule="evenodd" clip-rule="evenodd" d="M98.7606 163.302C106.842 170.002 117.002 173.681 127.5 173.708C133.469 173.794 139.395 172.697 144.938 170.48C150.48 168.263 155.528 164.97 159.792 160.792C164.492 156.75 168.34 151.814 171.112 146.27C173.884 140.725 175.524 134.685 175.937 128.5C176.47 121.924 175.695 115.308 173.655 109.034C171.615 102.759 168.352 96.9514 164.054 91.9459C174.77 101.219 181.367 114.366 182.396 128.5C183.006 135.951 182.127 143.449 179.81 150.556C177.492 157.664 173.46 163.851 168.575 169.511C162.409 175.73 154.917 180.476 146.659 183.394C138.4 186.311 129.59 187.325 120.885 186.358C112.18 185.392 103.806 182.471 96.3886 177.814C88.9712 173.157 82.7022 166.883 78.0499 159.463C73.3977 152.042 70.4826 143.666 69.5223 134.961C68.5621 126.255 69.5816 117.445 72.5047 109.189C75.4277 100.933 80.1788 93.4441 86.4028 87.2822C92.6268 81.1202 100.163 76.4444 108.448 73.6043C109.188 69.1042 111.491 65.0092 114.953 62.0402C118.414 59.0711 122.812 57.4183 127.372 57.3727C131.933 57.327 136.363 58.8914 139.883 61.7906C143.404 64.6897 145.788 68.7378 146.618 73.2221C147.448 77.7065 146.669 82.3398 144.419 86.3065C142.168 90.2732 138.591 93.319 134.316 94.9079C130.042 96.4967 125.343 96.5267 121.049 94.9926C116.754 93.4585 113.138 90.4586 110.837 86.5209C101.09 90.417 93.0017 97.584 87.961 106.792C82.9203 116 81.2411 126.676 83.2117 136.986C85.1822 147.297 90.6795 156.601 98.7606 163.302ZM127.5 86.0001C132.747 86.0001 137 81.7468 137 76.5001C137 71.2534 132.747 67.0001 127.5 67.0001C122.253 67.0001 118 71.2534 118 76.5001C118 81.7468 122.253 86.0001 127.5 86.0001Z" fill="white"/>
</svg>
